<svg xmlns="http://www.w3.org/2000/svg" viewBox="0 0 900 70" width="900" height="70" font-family="Segoe UI, Ubuntu, Helvetica, Arial, sans-serif">
<title>sky</title><g transform="translate(493,43) scale(0.78)"><path d="M0 -5 L1.2 -1.2 L5 0 L1.2 1.2 L0 5 L-1.2 1.2 L-5 0 L-1.2 -1.2 Z" fill="#D9E6F5" opacity="0.2"><animate attributeName="opacity" values="0.15;0.9;0.15" keyTimes="0;0.5;1" dur="4.1s" begin="3.1s" repeatCount="indefinite"/></path></g><circle cx="631" cy="20" r="1.3" fill="#D9E6F5" opacity="0.2"><animate attributeName="opacity" values="0.1;0.8;0.1" keyTimes="0;0.5;1" dur="2.3s" begin="2.0s" repeatCount="indefinite"/></circle><circle cx="842" cy="19" r="1.0" fill="#D9E6F5" opacity="0.2"><animate attributeName="opacity" values="0.1;0.8;0.1" keyTimes="0;0.5;1" dur="2.1s" begin="1.2s" repeatCount="indefinite"/></circle><g transform="translate(859,52) scale(0.76)"><path d="M0 -5 L1.2 -1.2 L5 0 L1.2 1.2 L0 5 L-1.2 1.2 L-5 0 L-1.2 -1.2 Z" fill="#D9E6F5" opacity="0.2"><animate attributeName="opacity" values="0.15;0.9;0.15" keyTimes="0;0.5;1" dur="3.5s" begin="2.4s" repeatCount="indefinite"/></path></g><circle cx="493" cy="49" r="1.3" fill="#D9E6F5" opacity="0.2"><animate attributeName="opacity" values="0.1;0.8;0.1" keyTimes="0;0.5;1" dur="3.8s" begin="2.6s" repeatCount="indefinite"/></circle><circle cx="571" cy="12" r="1.0" fill="#D9E6F5" opacity="0.2"><animate attributeName="opacity" values="0.1;0.8;0.1" keyTimes="0;0.5;1" dur="2.0s" begin="0.8s" repeatCount="indefinite"/></circle><g transform="translate(60,57) scale(0.94)"><path d="M0 -5 L1.2 -1.2 L5 0 L1.2 1.2 L0 5 L-1.2 1.2 L-5 0 L-1.2 -1.2 Z" fill="#D9E6F5" opacity="0.2"><animate attributeName="opacity" values="0.15;0.9;0.15" keyTimes="0;0.5;1" dur="3.1s" begin="1.8s" repeatCount="indefinite"/></path></g><circle cx="561" cy="22" r="1.3" fill="#D9E6F5" opacity="0.2"><animate attributeName="opacity" values="0.1;0.8;0.1" keyTimes="0;0.5;1" dur="3.5s" begin="2.0s" repeatCount="indefinite"/></circle><circle cx="498" cy="49" r="1.5" fill="#D9E6F5" opacity="0.2"><animate attributeName="opacity" values="0.1;0.8;0.1" keyTimes="0;0.5;1" dur="2.6s" begin="4.0s" repeatCount="indefinite"/></circle><defs><path id="spet" d="M0 0 C-4 -5 -4 -13 0 -17 C4 -13 4 -5 0 0 Z"/><path id="sleaf" d="M0 0 Q-7 -3 -9 -10 Q-3 -8 0 0 Z"/></defs><g transform="translate(657,-10)" opacity="0"><animate attributeName="opacity" values="0;0.7;0.7;0" keyTimes="0;0.1;0.75;1" dur="7.9s" begin="0.6s" repeatCount="indefinite"/><g><animateTransform attributeName="transform" type="translate" values="0 0;28 45;56 90" keyTimes="0;0.5;1" dur="7.9s" begin="0.6s" repeatCount="indefinite"/><use href="#sleaf" fill="#8F5230"><animateTransform attributeName="transform" type="rotate" values="0;170;350" keyTimes="0;0.5;1" dur="7.9s" begin="0.6s" repeatCount="indefinite"/></use></g></g><g transform="translate(795,-10)" opacity="0"><animate attributeName="opacity" values="0;0.7;0.7;0" keyTimes="0;0.1;0.75;1" dur="10.8s" begin="0.9s" repeatCount="indefinite"/><g><animateTransform attributeName="transform" type="translate" values="0 0;-34 45;-68 90" keyTimes="0;0.5;1" dur="10.8s" begin="0.9s" repeatCount="indefinite"/><use href="#sleaf" fill="#7E5A34"><animateTransform attributeName="transform" type="rotate" values="0;170;350" keyTimes="0;0.5;1" dur="10.8s" begin="0.9s" repeatCount="indefinite"/></use></g></g><g transform="translate(338,-10)" opacity="0"><animate attributeName="opacity" values="0;0.7;0.7;0" keyTimes="0;0.1;0.75;1" dur="10.3s" begin="3.4s" repeatCount="indefinite"/><g><animateTransform attributeName="transform" type="translate" values="0 0;-23 45;-46 90" keyTimes="0;0.5;1" dur="10.3s" begin="3.4s" repeatCount="indefinite"/><use href="#sleaf" fill="#9C6C3E"><animateTransform attributeName="transform" type="rotate" values="0;170;350" keyTimes="0;0.5;1" dur="10.3s" begin="3.4s" repeatCount="indefinite"/></use></g></g><g transform="translate(602,-10)" opacity="0"><animate attributeName="opacity" values="0;0.7;0.7;0" keyTimes="0;0.1;0.75;1" dur="11.9s" begin="1.0s" repeatCount="indefinite"/><g><animateTransform attributeName="transform" type="translate" values="0 0;20 45;40 90" keyTimes="0;0.5;1" dur="11.9s" begin="1.0s" repeatCount="indefinite"/><use href="#sleaf" fill="#9C6C3E"><animateTransform attributeName="transform" type="rotate" values="0;170;350" keyTimes="0;0.5;1" dur="11.9s" begin="1.0s" repeatCount="indefinite"/></use></g></g><g opacity="0.75"><g><animateTransform attributeName="transform" type="translate" values="-180 12;1000 12" dur="80s" begin="-20s" repeatCount="indefinite"/><g transform="scale(0.85)"><path d="M-38 8 C -44 8 -48 3 -46 -2 C -44.5 -6 -40 -8 -36 -7 C -35 -13 -28 -16.5 -21 -15 C -18 -20.5 -9 -22 -3 -18.5 C 2 -22 11 -21 15 -16.5 C 22 -18 30 -14 31 -8 C 36 -7.5 39 -3 37.5 1.5 C 36 6.5 31 8 27 8 Z" fill="#566274"/><ellipse cx="-4" cy="5" rx="34" ry="5" fill="#454F60" opacity="0.3"/></g></g></g><g opacity="0.85"><g><animateTransform attributeName="transform" type="translate" values="-180 18;1000 18" dur="62s" begin="-48s" repeatCount="indefinite"/><g transform="scale(1.1)"><path d="M-38 8 C -44 8 -48 3 -46 -2 C -44.5 -6 -40 -8 -36 -7 C -35 -13 -28 -16.5 -21 -15 C -18 -20.5 -9 -22 -3 -18.5 C 2 -22 11 -21 15 -16.5 C 22 -18 30 -14 31 -8 C 36 -7.5 39 -3 37.5 1.5 C 36 6.5 31 8 27 8 Z" fill="#566274"/><ellipse cx="-4" cy="5" rx="34" ry="5" fill="#454F60" opacity="0.3"/></g></g></g><g opacity="0.7"><g><animateTransform attributeName="transform" type="translate" values="-180 10;1000 10" dur="92s" begin="-70s" repeatCount="indefinite"/><g transform="scale(0.7)"><path d="M-38 8 C -44 8 -48 3 -46 -2 C -44.5 -6 -40 -8 -36 -7 C -35 -13 -28 -16.5 -21 -15 C -18 -20.5 -9 -22 -3 -18.5 C 2 -22 11 -21 15 -16.5 C 22 -18 30 -14 31 -8 C 36 -7.5 39 -3 37.5 1.5 C 36 6.5 31 8 27 8 Z" fill="#566274"/><ellipse cx="-4" cy="5" rx="34" ry="5" fill="#454F60" opacity="0.3"/></g></g></g><g><animateTransform attributeName="transform" type="translate" values="0 -14;0 86" dur="0.92s" begin="-1.18s" repeatCount="indefinite"/><line x1="470" y1="0" x2="466.5" y2="9" stroke="#6E87A3" stroke-width="1" stroke-linecap="round" opacity="0.35"/></g><g><animateTransform attributeName="transform" type="translate" values="0 -14;0 86" dur="0.95s" begin="-0.87s" repeatCount="indefinite"/><line x1="571" y1="0" x2="567.5" y2="9" stroke="#6E87A3" stroke-width="1" stroke-linecap="round" opacity="0.35"/></g><g><animateTransform attributeName="transform" type="translate" values="0 -14;0 86" dur="0.88s" begin="-0.22s" repeatCount="indefinite"/><line x1="815" y1="0" x2="811.5" y2="9" stroke="#6E87A3" stroke-width="1" stroke-linecap="round" opacity="0.35"/></g><g><animateTransform attributeName="transform" type="translate" values="0 -14;0 86" dur="0.99s" begin="-1.19s" repeatCount="indefinite"/><line x1="109" y1="0" x2="105.5" y2="9" stroke="#6E87A3" stroke-width="1" stroke-linecap="round" opacity="0.35"/></g><g><animateTransform attributeName="transform" type="translate" values="0 -14;0 86" dur="1.18s" begin="-0.68s" repeatCount="indefinite"/><line x1="523" y1="0" x2="519.5" y2="9" stroke="#6E87A3" stroke-width="1" stroke-linecap="round" opacity="0.35"/></g><g><animateTransform attributeName="transform" type="translate" values="0 -14;0 86" dur="0.96s" begin="-0.47s" repeatCount="indefinite"/><line x1="161" y1="0" x2="157.5" y2="9" stroke="#6E87A3" stroke-width="1" stroke-linecap="round" opacity="0.35"/></g><g><animateTransform attributeName="transform" type="translate" values="0 -14;0 86" dur="1.01s" begin="-0.75s" repeatCount="indefinite"/><line x1="755" y1="0" x2="751.5" y2="9" stroke="#6E87A3" stroke-width="1" stroke-linecap="round" opacity="0.35"/></g><g><animateTransform attributeName="transform" type="translate" values="0 -14;0 86" dur="0.95s" begin="-0.10s" repeatCount="indefinite"/><line x1="482" y1="0" x2="478.5" y2="9" stroke="#6E87A3" stroke-width="1" stroke-linecap="round" opacity="0.35"/></g><g><animateTransform attributeName="transform" type="translate" values="0 -14;0 86" dur="1.06s" begin="-0.51s" repeatCount="indefinite"/><line x1="117" y1="0" x2="113.5" y2="9" stroke="#6E87A3" stroke-width="1" stroke-linecap="round" opacity="0.35"/></g><g><animateTransform attributeName="transform" type="translate" values="0 -14;0 86" dur="0.97s" begin="-0.93s" repeatCount="indefinite"/><line x1="484" y1="0" x2="480.5" y2="9" stroke="#6E87A3" stroke-width="1" stroke-linecap="round" opacity="0.35"/></g><g><animateTransform attributeName="transform" type="translate" values="0 -14;0 86" dur="0.96s" begin="-0.08s" repeatCount="indefinite"/><line x1="610" y1="0" x2="606.5" y2="9" stroke="#6E87A3" stroke-width="1" stroke-linecap="round" opacity="0.35"/></g><g><animateTransform attributeName="transform" type="translate" values="0 -14;0 86" dur="1.01s" begin="-0.24s" repeatCount="indefinite"/><line x1="485" y1="0" x2="481.5" y2="9" stroke="#6E87A3" stroke-width="1" stroke-linecap="round" opacity="0.35"/></g><g><animateTransform attributeName="transform" type="translate" values="0 -14;0 86" dur="0.83s" begin="-0.97s" repeatCount="indefinite"/><line x1="451" y1="0" x2="447.5" y2="9" stroke="#6E87A3" stroke-width="1" stroke-linecap="round" opacity="0.35"/></g><g><animateTransform attributeName="transform" type="translate" values="0 -14;0 86" dur="1.02s" begin="-0.87s" repeatCount="indefinite"/><line x1="875" y1="0" x2="871.5" y2="9" stroke="#6E87A3" stroke-width="1" stroke-linecap="round" opacity="0.35"/></g><g><animateTransform attributeName="transform" type="translate" values="0 -14;0 86" dur="1.17s" begin="-0.90s" repeatCount="indefinite"/><line x1="610" y1="0" x2="606.5" y2="9" stroke="#6E87A3" stroke-width="1" stroke-linecap="round" opacity="0.35"/></g><g><animateTransform attributeName="transform" type="translate" values="0 -14;0 86" dur="1.19s" begin="-0.58s" repeatCount="indefinite"/><line x1="267" y1="0" x2="263.5" y2="9" stroke="#6E87A3" stroke-width="1" stroke-linecap="round" opacity="0.35"/></g><g><animateTransform attributeName="transform" type="translate" values="0 -14;0 86" dur="0.88s" begin="-0.63s" repeatCount="indefinite"/><line x1="26" y1="0" x2="22.5" y2="9" stroke="#6E87A3" stroke-width="1" stroke-linecap="round" opacity="0.35"/></g><g><animateTransform attributeName="transform" type="translate" values="0 -14;0 86" dur="0.82s" begin="-1.16s" repeatCount="indefinite"/><line x1="311" y1="0" x2="307.5" y2="9" stroke="#6E87A3" stroke-width="1" stroke-linecap="round" opacity="0.35"/></g><g><animateTransform attributeName="transform" type="translate" values="0 -14;0 86" dur="1.13s" begin="-0.98s" repeatCount="indefinite"/><line x1="43" y1="0" x2="39.5" y2="9" stroke="#6E87A3" stroke-width="1" stroke-linecap="round" opacity="0.35"/></g><g><animateTransform attributeName="transform" type="translate" values="0 -14;0 86" dur="1.02s" begin="-1.13s" repeatCount="indefinite"/><line x1="194" y1="0" x2="190.5" y2="9" stroke="#6E87A3" stroke-width="1" stroke-linecap="round" opacity="0.35"/></g><g><animateTransform attributeName="transform" type="translate" values="0 -14;0 86" dur="1.05s" begin="-0.31s" repeatCount="indefinite"/><line x1="397" y1="0" x2="393.5" y2="9" stroke="#6E87A3" stroke-width="1" stroke-linecap="round" opacity="0.35"/></g><g><animateTransform attributeName="transform" type="translate" values="0 -14;0 86" dur="0.85s" begin="-0.47s" repeatCount="indefinite"/><line x1="566" y1="0" x2="562.5" y2="9" stroke="#6E87A3" stroke-width="1" stroke-linecap="round" opacity="0.35"/></g><g><animateTransform attributeName="transform" type="translate" values="0 -14;0 86" dur="1.05s" begin="-1.04s" repeatCount="indefinite"/><line x1="130" y1="0" x2="126.5" y2="9" stroke="#6E87A3" stroke-width="1" stroke-linecap="round" opacity="0.35"/></g><g><animateTransform attributeName="transform" type="translate" values="0 -14;0 86" dur="1.19s" begin="-0.24s" repeatCount="indefinite"/><line x1="421" y1="0" x2="417.5" y2="9" stroke="#6E87A3" stroke-width="1" stroke-linecap="round" opacity="0.35"/></g><g><animateTransform attributeName="transform" type="translate" values="0 -14;0 86" dur="0.94s" begin="-0.89s" repeatCount="indefinite"/><line x1="861" y1="0" x2="857.5" y2="9" stroke="#6E87A3" stroke-width="1" stroke-linecap="round" opacity="0.35"/></g><g><animateTransform attributeName="transform" type="translate" values="0 -14;0 86" dur="1.08s" begin="-0.71s" repeatCount="indefinite"/><line x1="239" y1="0" x2="235.5" y2="9" stroke="#6E87A3" stroke-width="1" stroke-linecap="round" opacity="0.35"/></g><g><animateTransform attributeName="transform" type="translate" values="0 -20;0 92" dur="0.93s" begin="-0.41s" repeatCount="indefinite"/><line x1="205" y1="0" x2="199" y2="16" stroke="#6E87A3" stroke-width="1.6" stroke-linecap="round" opacity="0.6"/></g><g><animateTransform attributeName="transform" type="translate" values="0 -20;0 92" dur="0.87s" begin="-0.08s" repeatCount="indefinite"/><line x1="594" y1="0" x2="588" y2="16" stroke="#6E87A3" stroke-width="1.6" stroke-linecap="round" opacity="0.6"/></g><g><animateTransform attributeName="transform" type="translate" values="0 -20;0 92" dur="0.74s" begin="-0.56s" repeatCount="indefinite"/><line x1="12" y1="0" x2="6" y2="16" stroke="#6E87A3" stroke-width="1.6" stroke-linecap="round" opacity="0.6"/></g><g><animateTransform attributeName="transform" type="translate" values="0 -20;0 92" dur="0.66s" begin="-0.97s" repeatCount="indefinite"/><line x1="216" y1="0" x2="210" y2="16" stroke="#6E87A3" stroke-width="1.6" stroke-linecap="round" opacity="0.6"/></g><g><animateTransform attributeName="transform" type="translate" values="0 -20;0 92" dur="0.76s" begin="-0.02s" repeatCount="indefinite"/><line x1="533" y1="0" x2="527" y2="16" stroke="#6E87A3" stroke-width="1.6" stroke-linecap="round" opacity="0.6"/></g><g><animateTransform attributeName="transform" type="translate" values="0 -20;0 92" dur="0.63s" begin="-0.06s" repeatCount="indefinite"/><line x1="199" y1="0" x2="193" y2="16" stroke="#6E87A3" stroke-width="1.6" stroke-linecap="round" opacity="0.6"/></g><g><animateTransform attributeName="transform" type="translate" values="0 -20;0 92" dur="0.95s" begin="-0.77s" repeatCount="indefinite"/><line x1="203" y1="0" x2="197" y2="16" stroke="#6E87A3" stroke-width="1.6" stroke-linecap="round" opacity="0.6"/></g><g><animateTransform attributeName="transform" type="translate" values="0 -20;0 92" dur="0.72s" begin="-0.05s" repeatCount="indefinite"/><line x1="48" y1="0" x2="42" y2="16" stroke="#6E87A3" stroke-width="1.6" stroke-linecap="round" opacity="0.6"/></g><g><animateTransform attributeName="transform" type="translate" values="0 -20;0 92" dur="0.60s" begin="-0.76s" repeatCount="indefinite"/><line x1="689" y1="0" x2="683" y2="16" stroke="#6E87A3" stroke-width="1.6" stroke-linecap="round" opacity="0.6"/></g><g><animateTransform attributeName="transform" type="translate" values="0 -20;0 92" dur="0.73s" begin="-0.63s" repeatCount="indefinite"/><line x1="284" y1="0" x2="278" y2="16" stroke="#6E87A3" stroke-width="1.6" stroke-linecap="round" opacity="0.6"/></g><g><animateTransform attributeName="transform" type="translate" values="0 -20;0 92" dur="0.93s" begin="-0.80s" repeatCount="indefinite"/><line x1="732" y1="0" x2="726" y2="16" stroke="#6E87A3" stroke-width="1.6" stroke-linecap="round" opacity="0.6"/></g><g><animateTransform attributeName="transform" type="translate" values="0 -20;0 92" dur="0.92s" begin="-0.33s" repeatCount="indefinite"/><line x1="176" y1="0" x2="170" y2="16" stroke="#6E87A3" stroke-width="1.6" stroke-linecap="round" opacity="0.6"/></g><g><animateTransform attributeName="transform" type="translate" values="0 -20;0 92" dur="0.67s" begin="-0.61s" repeatCount="indefinite"/><line x1="831" y1="0" x2="825" y2="16" stroke="#6E87A3" stroke-width="1.6" stroke-linecap="round" opacity="0.6"/></g><g><animateTransform attributeName="transform" type="translate" values="0 -20;0 92" dur="0.82s" begin="-0.13s" repeatCount="indefinite"/><line x1="721" y1="0" x2="715" y2="16" stroke="#6E87A3" stroke-width="1.6" stroke-linecap="round" opacity="0.6"/></g><g><animateTransform attributeName="transform" type="translate" values="0 -20;0 92" dur="0.94s" begin="-0.73s" repeatCount="indefinite"/><line x1="557" y1="0" x2="551" y2="16" stroke="#6E87A3" stroke-width="1.6" stroke-linecap="round" opacity="0.6"/></g><g><animateTransform attributeName="transform" type="translate" values="0 -20;0 92" dur="0.80s" begin="-0.66s" repeatCount="indefinite"/><line x1="587" y1="0" x2="581" y2="16" stroke="#6E87A3" stroke-width="1.6" stroke-linecap="round" opacity="0.6"/></g><g><animateTransform attributeName="transform" type="translate" values="0 -20;0 92" dur="0.75s" begin="-0.56s" repeatCount="indefinite"/><line x1="282" y1="0" x2="276" y2="16" stroke="#6E87A3" stroke-width="1.6" stroke-linecap="round" opacity="0.6"/></g><g><animateTransform attributeName="transform" type="translate" values="0 -20;0 92" dur="0.70s" begin="-0.17s" repeatCount="indefinite"/><line x1="735" y1="0" x2="729" y2="16" stroke="#6E87A3" stroke-width="1.6" stroke-linecap="round" opacity="0.6"/></g><g><animateTransform attributeName="transform" type="translate" values="0 -20;0 92" dur="0.93s" begin="-0.55s" repeatCount="indefinite"/><line x1="468" y1="0" x2="462" y2="16" stroke="#6E87A3" stroke-width="1.6" stroke-linecap="round" opacity="0.6"/></g><g><animateTransform attributeName="transform" type="translate" values="0 -20;0 92" dur="0.88s" begin="-0.01s" repeatCount="indefinite"/><line x1="815" y1="0" x2="809" y2="16" stroke="#6E87A3" stroke-width="1.6" stroke-linecap="round" opacity="0.6"/></g><text x="893" y="64" text-anchor="end" font-size="9" letter-spacing="1.5" fill="#8b949e">LIVE SKY · RAIN · AUTUMN</text></svg>
